<?xml version="1.0" encoding="UTF-8"?>
<svg version="1.1" xmlns="http://www.w3.org/2000/svg" width="512" height="512">
<path d="M0 0 C0.74234894 -0.00807175 1.48469788 -0.01614349 2.24954224 -0.02445984 C3.82144843 -0.03829592 5.39338462 -0.04902021 6.96533203 -0.05688477 C9.3667908 -0.07410387 11.76687468 -0.11799155 14.16796875 -0.16210938 C15.69530238 -0.17223604 17.22264771 -0.18075223 18.75 -0.1875 C19.46678925 -0.20500809 20.18357849 -0.22251617 20.92208862 -0.24055481 C24.34925824 -0.22567767 26.17595957 -0.01513129 28.93505859 2.09179688 C30.82408639 4.66992981 31.42068267 6.974724 32.2578125 10.05078125 C34.26396182 15.21487539 36.43909736 17.29668866 41.28027344 19.62573242 C49.12046401 23.05149131 49.12046401 23.05149131 57.5078125 22.23828125 C58.4359375 21.72265625 59.3640625 21.20703125 60.3203125 20.67578125 C64.56184532 18.76293311 67.93764175 18.19389515 72.5078125 19.23828125 C75.6610638 21.0874101 77.98204984 23.61897182 80.5078125 26.23828125 C81.6116581 27.31420725 82.71868241 28.38687752 83.828125 29.45703125 C85.01426745 30.61200237 86.19915794 31.76826059 87.3828125 32.92578125 C87.95483398 33.48418701 88.52685547 34.04259277 89.11621094 34.61791992 C94.36878101 39.86499567 94.36878101 39.86499567 95.5078125 43.23828125 C95.33462359 47.65459835 94.28171467 50.77322845 92.2578125 54.61328125 C90.58219247 58.17624225 90.31284472 60.05417212 91.5703125 63.80078125 C92.1912716 65.29056127 92.83738543 66.77009793 93.5078125 68.23828125 C96.5078125 75.84447594 96.5078125 75.84447594 96.5078125 79.23828125 C97.79661316 79.23161942 99.08541382 79.22495758 100.41326904 79.21809387 C112.59447246 79.15712093 124.77564466 79.11223106 136.9569664 79.08284473 C143.21860901 79.06722877 149.48012783 79.04606497 155.74169922 79.01196289 C161.79120338 78.97922421 167.84058891 78.96139766 173.89017487 78.95364952 C176.19129553 78.948132 178.49241014 78.93735799 180.79347992 78.92109108 C198.34932299 78.80198689 213.14170281 78.78378786 226.796875 91.34375 C239.53168437 104.81784605 239.83474729 120.50314118 239.60449219 138.10644531 C239.59083697 139.76235101 239.57830149 141.41826626 239.56678772 143.07418823 C239.54118263 146.61695992 239.51048638 150.15963785 239.47655487 153.70233917 C239.42548426 159.33064334 239.40321835 164.9588394 239.38775635 170.58734131 C239.38368039 172.02031473 239.38368039 172.02031473 239.37952209 173.4822371 C239.37408969 175.43472009 239.36875449 177.38720335 239.36351442 179.33968687 C239.32797252 192.42037323 239.27740347 205.50007267 239.13427734 218.58007812 C239.03760615 227.43400587 238.99196035 236.28664655 239.00288129 245.14111495 C239.00671295 249.8082575 238.98650768 254.47220689 238.90352631 259.1386795 C238.52516986 281.36953946 239.51116092 297.34621661 252.88387299 315.94971848 C255.04785807 318.99934913 256.8444984 322.16840463 258.65625 325.4375 C259.72973413 327.26812294 260.80513918 329.09762132 261.8828125 330.92578125 C263.04196244 332.9060769 264.20081815 334.88654481 265.359375 336.8671875 C266.85891465 339.42646772 268.35912305 341.98533766 269.86230469 344.54248047 C270.99934295 346.47977365 272.12962511 348.42082528 273.2578125 350.36328125 C274.14726563 351.88308594 274.14726563 351.88308594 275.0546875 353.43359375 C280.14404462 363.25660024 280.4796783 373.68679442 277.5078125 384.23828125 C273.19872341 394.64047721 267.22858157 401.33008168 257.1328125 406.1953125 C249.27554312 409.31717399 242.45054774 409.5294076 234.02026367 409.51293945 C232.65616071 409.517292 231.29206019 409.52247695 229.92796326 409.52842712 C226.23771363 409.54177197 222.5475667 409.54240071 218.85729766 409.53986382 C215.76861769 409.53879076 212.67995822 409.54368618 209.59128267 409.54846925 C202.29903925 409.55954942 195.00684736 409.56001063 187.71459961 409.55395508 C180.21137548 409.54791973 172.70833908 409.5602185 165.20514697 409.58152515 C158.74629216 409.59918653 152.28749686 409.60513526 145.82861882 409.6018874 C141.97855573 409.60008118 138.12862649 409.60264404 134.27858543 409.61660194 C130.65463794 409.62924936 127.03098117 409.62717157 123.40703773 409.61419106 C121.45762995 409.61072734 119.508213 409.62195292 117.55883789 409.63375854 C105.95337859 409.56486595 99.45876649 407.45762749 89.5078125 401.23828125 C89.1778125 411.79828125 88.8478125 422.35828125 88.5078125 433.23828125 C91.62863281 433.21507812 94.74945313 433.191875 97.96484375 433.16796875 C101.01977126 433.15232819 104.07469415 433.14020857 107.12963867 433.12841797 C109.23708118 433.11842015 111.34451003 433.10481747 113.4519043 433.08740234 C116.49791861 433.06287843 119.543748 433.05173566 122.58984375 433.04296875 C123.51738968 433.03264618 124.44493561 433.02232361 125.40058899 433.01168823 C138.30881183 433.00952188 150.77945389 435.52932247 160.5078125 444.61328125 C168.35832305 453.24884285 168.74069937 462.34424782 168.80297852 473.51000977 C168.81452097 474.95216668 168.83500888 476.39428013 168.86450195 477.83618164 C168.90724119 479.92753918 168.92335142 482.01763468 168.93359375 484.109375 C168.94817627 485.3564624 168.96275879 486.6035498 168.9777832 487.88842773 C168.37981471 492.15062291 167.80292714 493.42539215 164.5078125 496.23828125 C160.47160117 497.01568553 156.45991273 496.91181282 152.36083984 496.87319946 C150.4733455 496.88489939 150.4733455 496.88489939 148.54771996 496.89683568 C145.05256902 496.91774487 141.55809902 496.90737612 138.06294537 496.89190459 C134.29462209 496.88061134 130.52641752 496.89804365 126.75811768 496.9118042 C119.37510518 496.93406296 111.99234651 496.92922378 104.60932398 496.91474099 C98.61019459 496.90345908 92.61113646 496.9019133 86.61199951 496.90736008 C85.7588851 496.90812624 84.90577069 496.90889241 84.02680433 496.90968179 C82.29383737 496.91128038 80.56087043 496.91290145 78.82790351 496.91454475 C62.56947369 496.92880997 46.31118472 496.91239743 30.05277801 496.88554291 C16.09566166 496.86320341 2.13875322 496.86708332 -11.81835938 496.89013672 C-28.01772932 496.91688111 -44.21697574 496.9274366 -60.41636467 496.9120754 C-62.1430346 496.91048262 -63.86970455 496.90891077 -65.59637451 496.90736008 C-66.44597767 496.9065887 -67.29558084 496.90581732 -68.17092955 496.90502257 C-74.16437783 496.90070147 -80.15774791 496.90800092 -86.15118408 496.91975784 C-93.45306611 496.9337663 -100.75467933 496.93001799 -108.05653048 496.90335412 C-111.78369476 496.89019336 -115.51041053 496.88510136 -119.23757172 496.90159988 C-123.27384499 496.91919678 -127.30898117 496.89821869 -131.34521484 496.87319946 C-132.52924707 496.88435307 -133.7132793 496.89550668 -134.9331913 496.90699828 C-142.8224852 496.81160879 -142.8224852 496.81160879 -146.22001648 493.9030056 C-147.83366081 490.52302188 -147.99399033 488.02932309 -147.98828125 484.28515625 C-147.98973648 483.62549866 -147.99119171 482.96584106 -147.99269104 482.28619385 C-147.99103718 480.89436415 -147.97953316 479.5025152 -147.95874023 478.11083984 C-147.92995705 476.00797423 -147.93810532 473.90766282 -147.95117188 471.8046875 C-147.93512569 459.98724298 -146.44947514 452.19397161 -138.14453125 443.5390625 C-127.66286895 434.44672216 -114.96011137 432.89399842 -101.57421875 433.04296875 C-100.09933235 433.04721359 -100.09933235 433.04721359 -98.59465027 433.05154419 C-95.49786464 433.06261234 -92.4013836 433.08769072 -89.3046875 433.11328125 C-87.18685318 433.12332836 -85.06901426 433.13245116 -82.95117188 433.140625 C-77.79796938 433.16079409 -72.64541364 433.1999673 -67.4921875 433.23828125 C-67.4921875 421.35828125 -67.4921875 409.47828125 -67.4921875 397.23828125 C-72.44955933 397.2539917 -72.44955933 397.2539917 -77.50708008 397.27001953 C-88.4513943 397.30322418 -99.39571081 397.32527685 -110.34006214 397.34190559 C-116.97274767 397.35232324 -123.60538139 397.36644558 -130.23803711 397.38916016 C-136.64414158 397.41096049 -143.05019635 397.42286505 -149.45633507 397.42803574 C-151.89503448 397.43171859 -154.3337313 397.43891018 -156.77240944 397.44974136 C-160.19965018 397.46435175 -163.62668799 397.4662552 -167.05395508 397.46533203 C-168.05233902 397.47252258 -169.05072296 397.47971313 -170.07936096 397.48712158 C-185.00264918 397.44389184 -196.31604918 394.01124192 -207.296875 383.6328125 C-210.49352248 380.14607779 -212.6013696 376.55243311 -214.4921875 372.23828125 C-214.79769531 371.56925781 -215.10320312 370.90023438 -215.41796875 370.2109375 C-218.730563 362.28269059 -218.64088249 353.82912376 -218.62590027 345.35992432 C-218.62816583 344.4058556 -218.63043138 343.45178688 -218.63276559 342.46880698 C-218.63906168 339.29331971 -218.63827906 336.11787561 -218.63745117 332.94238281 C-218.64044541 330.65675807 -218.64384854 328.37113383 -218.64762878 326.08551025 C-218.65644612 319.8911503 -218.65880595 313.69680417 -218.65944457 307.50243855 C-218.66015636 303.62828999 -218.66229314 299.75414494 -218.66494179 295.87999725 C-218.67371104 283.05003971 -218.67836243 270.22009329 -218.67761131 257.39013317 C-218.67757136 256.69968024 -218.6775314 256.00922731 -218.67749023 255.29785156 C-218.67744935 254.60654726 -218.67740847 253.91524295 -218.67736635 253.20299003 C-218.67696012 242.00583973 -218.68652609 230.80872311 -218.7006286 219.61158255 C-218.7150233 208.09075472 -218.72171432 196.56994764 -218.72103482 185.04911017 C-218.7207804 178.5905683 -218.72360105 172.13206454 -218.73421288 165.67353058 C-218.74392597 159.59632266 -218.74395104 153.51918906 -218.73669624 147.44197845 C-218.73565439 145.21887605 -218.73798943 142.99576893 -218.7440567 140.77267456 C-218.83504294 105.10847336 -218.83504294 105.10847336 -204.9375 90.5 C-191.2013877 77.79519325 -174.32681384 78.81885643 -156.7890625 78.9453125 C-154.49693074 78.95091623 -152.20479535 78.95518265 -149.91265869 78.95817566 C-143.91544461 78.96956322 -137.91845272 78.99897745 -131.92132568 79.0322876 C-125.78742477 79.06312042 -119.65348753 79.07670911 -113.51953125 79.09179688 C-101.5103197 79.12385343 -89.50127217 79.17497531 -77.4921875 79.23828125 C-77.36104553 78.61918381 -77.22990356 78.00008636 -77.0947876 77.36222839 C-76.91945496 76.55070816 -76.74412231 75.73918793 -76.56347656 74.90307617 C-76.39108459 74.09835373 -76.21869263 73.29363129 -76.04107666 72.46452332 C-75.42000556 69.9455182 -74.47471254 67.82921663 -73.2421875 65.55078125 C-71.79055925 62.43706563 -71.42616788 61.60505689 -72.0546875 58.11328125 C-72.5290625 57.16453125 -73.0034375 56.21578125 -73.4921875 55.23828125 C-76.05548524 50.01674881 -77.28264464 46.9080622 -75.4921875 41.23828125 C-73.48786472 38.24507075 -71.02583586 35.78857097 -68.4921875 33.23828125 C-67.39704963 32.1172713 -66.30200474 30.99617052 -65.20703125 29.875 C-54.59909006 19.09900638 -54.59909006 19.09900638 -49.4296875 18.92578125 C-44.8249471 18.94061133 -41.62935371 20.26283984 -37.6328125 22.4609375 C-32.12931735 24.4594695 -26.22147236 20.49194404 -21.234375 18.296875 C-18.4921875 17.23828125 -18.4921875 17.23828125 -15.4921875 17.23828125 C-15.4303125 16.45453125 -15.3684375 15.67078125 -15.3046875 14.86328125 C-14.19767068 9.92428314 -12.1087944 5.56668706 -9.4921875 1.23828125 C-6.46770479 -0.27396011 -3.32002614 0.03402265 0 0 Z " fill="#252323" transform="translate(225.4921875,7.76171875)"/>
<path d="M0 0 C83 0 83 0 96 5 C98.31743575 9.362232 99.70538787 12.42935061 101 17 C101.37125 17.87785156 101.7425 18.75570312 102.125 19.66015625 C103.40291981 23.07745075 102.8027127 25.48041355 102 29 C101.484375 29.99 100.96875 30.98 100.4375 32 C98.61056321 35.81273766 98.27809087 37.81292707 99 42 C100.91147322 45.06805303 103.45731624 47.44923139 106 50 C107.10286749 51.20464963 108.20289863 52.41189932 109.30078125 53.62109375 C110.51140518 54.91557538 111.72366051 56.20853313 112.9375 57.5 C113.51000488 58.13623291 114.08250977 58.77246582 114.67236328 59.42797852 C117.66870807 62.529614 119.7210841 64.40741102 124.15234375 64.53515625 C127.53537235 64.06462334 129.68257617 63.56299631 132.625 61.9375 C137.65600508 59.16016076 141.27526963 60.56697475 146.65625 61.91796875 C157.43533574 65.27752199 157.43533574 65.27752199 160.16796875 70.40625 C161.25055701 72.868048 162.02369147 75.27232401 162.82421875 77.85546875 C164.14523264 81.38841288 164.7824879 82.175317 168 84 C172.27236521 84.57342709 176.53644331 84.51518279 180.84448242 84.50097656 C182.92832704 84.50000428 185.00848381 84.54163787 187.09179688 84.5859375 C188.41115234 84.58851563 189.73050781 84.59109375 191.08984375 84.59375 C192.29503662 84.60083984 193.50022949 84.60792969 194.74194336 84.61523438 C198.91266789 83.82765657 200.3717032 82.26073919 203 79 C204.02771536 76.13318653 204.02771536 76.13318653 204.75 73.125 C206.78069804 67.80838281 209.12083003 65.88048596 214.12792969 63.61474609 C224.95145011 59.26932003 224.95145011 59.26932003 231 61 C232.11375 61.515625 233.2275 62.03125 234.375 62.5625 C238.51895003 64.20579053 241.68139742 65.246734 246 64 C249.90824063 61.11605363 253.12948383 57.66740446 256.4375 54.125 C257.80165039 52.71927734 257.80165039 52.71927734 259.19335938 51.28515625 C264.88711999 45.92784515 264.88711999 45.92784515 267.3125 38.875 C266.97719913 34.71726918 265.97651111 32.62323621 263.77734375 29.1875 C261.56531018 22.96268192 265.2523963 15.02038379 267.4140625 9.12890625 C269.33587501 5.33735005 270.89565017 3.97114614 274.83984375 2.578125 C275.55269531 2.38734375 276.26554687 2.1965625 277 2 C278.28935959 1.49413864 278.28935959 1.49413864 279.60476685 0.97805786 C283.6207 -0.17880378 287.34584114 -0.26548814 291.48388672 -0.22705078 C292.32714571 -0.22729185 293.1704047 -0.22753292 294.039217 -0.2277813 C296.75281671 -0.22629556 299.46613731 -0.21109691 302.1796875 -0.1953125 C303.86140816 -0.19236977 305.54313065 -0.19033074 307.22485352 -0.18920898 C313.44159705 -0.17874832 319.65830131 -0.15082578 325.875 -0.125 C339.77625 -0.08375 353.6775 -0.0425 368 0 C368 33.99 368 67.98 368 103 C362.06 101.515 362.06 101.515 356 100 C343.80348691 99.11983926 335.15906517 101.58899922 325.77734375 109.51171875 C324 111 324 111 322 112 C321.5875 111.28714844 321.175 110.57429688 320.75 109.83984375 C315.17111157 100.58735691 309.1307995 94.0523198 299 90 C298.26265625 89.7009375 297.5253125 89.401875 296.765625 89.09375 C286.73874335 85.5548506 276.27542702 85.70553043 266.46484375 89.796875 C259.1781152 93.35362998 251.55900531 97.54822775 248.06318665 105.10029602 C246.42013413 107.75726164 245.60210096 108.81028922 242.59160423 109.75884056 C239.43071555 110.06666747 236.35247599 110.11506131 233.17651367 110.08276367 C231.97919113 110.1016011 230.78186859 110.12043854 229.54826355 110.1398468 C226.27047916 110.18166464 222.99522674 110.18735229 219.71727538 110.17339873 C216.97631986 110.16613611 214.23573024 110.18322661 211.49483377 110.20008165 C205.02416635 110.2392513 198.55443525 110.23659915 192.08374023 110.20776367 C185.42128354 110.17878653 178.76181798 110.21916606 172.09978694 110.29412669 C166.36946434 110.35618751 160.640081 110.37530679 154.90944272 110.36033612 C151.49131056 110.35180414 148.07514984 110.35908055 144.65730858 110.40755272 C140.83982548 110.44973853 137.02897509 110.4216216 133.21166992 110.37573242 C132.08879578 110.4027121 130.96592163 110.42969177 129.809021 110.45748901 C124.93770738 110.33335957 122.12993843 110.15098628 118.62444496 106.58019447 C116.51411438 103.62886047 116.51411438 103.62886047 114.75403309 100.69357777 C110.06346549 93.49051605 100.28364197 89.40897119 92.1875 87.25 C78.17509281 86.15098767 66.79593851 87.91530715 55.44921875 96.77734375 C50.74100598 101.05002806 46.45016319 106.06989489 44 112 C44.1101788 116.78903018 44.1101788 116.78903018 46.57421875 120.69604492 C49.91832217 122.49363514 52.98988315 122.36548116 56.6875 122.30078125 C58.20573354 122.3084208 59.72396299 122.31691026 61.2421875 122.32617188 C63.62564767 122.32395859 66.00829368 122.31240433 68.39160156 122.28491211 C70.69940702 122.26419615 73.00474483 122.28021221 75.3125 122.30078125 C76.02301514 122.28227615 76.73353027 122.26377106 77.46557617 122.2447052 C79.48828125 122.2746582 79.48828125 122.2746582 83 123 C85.40175405 125.83149374 86.7715182 127.85759101 87.5 131.5 C86.77165001 135.14174995 85.40196621 137.17002705 83 140 C80.16712897 140.56206345 78.16666805 140.72765524 75.34765625 140.62890625 C74.61050888 140.63075424 73.87336151 140.63260223 73.11387634 140.63450623 C70.76228268 140.63875196 68.41368966 140.60463602 66.0625 140.5625 C63.71508153 140.52563712 61.36955945 140.49799285 59.02183533 140.50120544 C57.56363082 140.50296624 56.1051677 140.48196957 54.64772034 140.43495178 C50.75748693 140.43656605 49.12795935 140.89956942 46.02905273 143.33178711 C43.72112416 145.86719843 43.72112416 145.86719843 43.75 149.1875 C45.5959572 157.1634283 52.33931334 164.53733994 59 169 C70.01050574 175.29422223 80.15858299 177.70691244 92.8828125 175.5 C101.14841361 173.21983418 108.86549584 168.99818184 115 163 C115.81384772 161.46972084 116.62342877 159.93716817 117.42971802 158.40289307 C119.28923573 155.59628203 120.28549708 154.24310846 123.50063705 153.14916229 C126.67471079 152.81186223 129.74506489 152.76094941 132.93701172 152.80371094 C134.13448029 152.78472748 135.33194885 152.76574402 136.56570435 152.7461853 C139.83955673 152.70498649 143.11016374 152.70424767 146.38411856 152.72520733 C149.12266216 152.73748072 151.8607517 152.72163358 154.59925473 152.70582986 C161.06381608 152.6689132 167.52718037 152.67796987 173.99169922 152.71679688 C180.64683651 152.75606134 187.29875067 152.72268231 193.95356166 152.65252471 C199.67969564 152.59446947 205.40483278 152.57943746 211.13122761 152.59899354 C214.54594507 152.61037708 217.9587692 152.60637522 221.37325668 152.56188202 C225.18592915 152.52441941 228.9918197 152.55740815 232.80419922 152.60839844 C233.92550232 152.58298981 235.04680542 152.55758118 236.2020874 152.53140259 C241.06970598 152.66233648 243.87344204 152.85152009 247.37457657 156.420784 C249.4848938 159.37213135 249.4848938 159.37213135 251.24540901 162.30698013 C253.99599962 166.52870201 257.62355999 168.67242691 262 171 C263.04607422 171.58201172 263.04607422 171.58201172 264.11328125 172.17578125 C270.43430087 175.35362475 277.03076347 176.18135707 284 177 C283.33410214 178.66697398 282.66716077 180.33353106 282 182 C281.77496709 182.65183254 281.54993418 183.30366508 281.31808209 183.97525012 C279.24503114 189.70313621 276.77647802 195.05473468 272 199 C263.88585726 202.20556343 254.44427374 201.14345174 245.89599609 200.92993164 C243.2144559 200.92513313 240.53370797 200.92708514 237.8522644 200.93745422 C232.08994098 200.94634321 226.33090466 200.89329623 220.56940842 200.79741096 C212.23999182 200.65887998 203.91215464 200.61494168 195.58171101 200.59361511 C182.06513008 200.55646371 168.55029928 200.44348813 155.03466797 200.2824707 C141.91040631 200.12627901 128.78662345 200.00621634 115.66162109 199.93383789 C114.84354025 199.92928194 114.0254594 199.92472598 113.18258822 199.92003196 C106.78407133 199.88467903 100.38554403 199.85141228 93.98701262 199.81880438 C62.65640169 199.65860523 31.33017501 199.31657091 0 199 C0 133.33 0 67.66 0 0 Z " fill="#D7EBFD" transform="translate(52,132)"/>
<path d="M0 0 C5.28 0 10.56 0 16 0 C21 11.75 21 11.75 21 14 C21.58265625 14.15855469 22.1653125 14.31710938 22.765625 14.48046875 C30.65286374 16.72510745 38.64403359 19.35598546 45.68359375 23.62890625 C48.79891047 25.47287955 50.40662106 25.48372409 54 25 C56.34388937 24.01997657 58.59856191 22.95127564 60.8515625 21.77734375 C63.50272367 20.81810544 64.43148022 20.84962048 67 22 C69.359375 24.06640625 69.359375 24.06640625 71.75 26.5625 C72.94882812 27.80193359 72.94882812 27.80193359 74.171875 29.06640625 C74.77515625 29.70449219 75.3784375 30.34257813 76 31 C75.62746094 31.79664062 75.25492188 32.59328125 74.87109375 33.4140625 C74.16146484 35.00347656 74.16146484 35.00347656 73.4375 36.625 C72.96183594 37.66914062 72.48617187 38.71328125 71.99609375 39.7890625 C70.54914216 44.4533535 71.27495804 47.40713859 73.26953125 51.7890625 C74.03330078 53.19285156 74.03330078 53.19285156 74.8125 54.625 C82 68.48042169 82 68.48042169 82 75 C82.825 75.268125 83.65 75.53625 84.5 75.8125 C88.36915561 77.12524922 92.17994294 78.55101284 96 80 C96 85.28 96 90.56 96 96 C92.97265625 97.171875 89.9453125 98.34375 86.91796875 99.515625 C82.50773442 101.7591177 81.42961781 103.81888771 79.75390625 108.42578125 C79.35091201 109.71954373 78.95398729 111.0152092 78.5625 112.3125 C76.06092679 120.31485982 76.06092679 120.31485982 73.6875 123.875 C71.4501329 128.01827241 71.26562974 131.38275253 72 136 C72.93704257 138.0302589 73.92925408 140.03696582 75 142 C75.375 144.37109375 75.375 144.37109375 75 147 C73.03125 149.45703125 73.03125 149.45703125 70.5 151.8125 C69.6646875 152.60269531 68.829375 153.39289063 67.96875 154.20703125 C67.3190625 154.79871094 66.669375 155.39039063 66 156 C64.5410574 155.52269162 63.08286504 155.04308958 61.625 154.5625 C60.81289063 154.29566406 60.00078125 154.02882812 59.1640625 153.75390625 C57 153 57 153 55 152 C49.39433994 151.52306961 45.57078268 152.76439545 40.6875 155.3125 C35.51855031 157.89120307 30.62536063 159.93550639 24.953125 161.19921875 C22.29934289 162.28726941 21.47262696 163.55401277 20 166 C19.20977526 167.89231076 18.48171423 169.81158636 17.8125 171.75 C17.214375 173.4825 16.61625 175.215 16 177 C10.72 177 5.44 177 0 177 C-0.99 173.90625 -0.99 173.90625 -2 170.75 C-4.07698393 165.05239222 -4.07698393 165.05239222 -8.625 161.4375 C-10.0673786 160.91225647 -11.52833586 160.43651055 -13 160 C-14.83543336 159.33913697 -16.66867446 158.67216242 -18.5 158 C-19.43328125 157.67515625 -20.3665625 157.3503125 -21.328125 157.015625 C-23.77349139 156.08609977 -25.96231405 155.00911397 -28.25 153.75 C-32.02024928 151.82281376 -34.72039873 151.39935421 -39 152 C-41.36537957 153.00568859 -43.62836094 154.09285692 -45.88671875 155.3203125 C-48 156 -48 156 -50.03125 155.31640625 C-53.53247664 152.97530828 -56.56689621 150.46787206 -59 147 C-59.06102016 143.39981075 -58.64014086 141.21022857 -56.96484375 138.04296875 C-55.22396524 134.3568171 -55.31038503 130.97717598 -56 127 C-57.30282191 123.93329258 -58.81823924 121.06284752 -60.41796875 118.140625 C-62.47181442 114.06336101 -63.67314458 109.89613 -64.84765625 105.49609375 C-66.92597345 100.99424734 -71.45880954 99.69693319 -75.8125 97.8125 C-77.194375 97.214375 -78.57625 96.61625 -80 96 C-80 90.72 -80 85.44 -80 80 C-68.25 75 -68.25 75 -66 75 C-65.84144531 74.33355469 -65.68289062 73.66710937 -65.51953125 72.98046875 C-63.41755264 64.67707257 -60.34489565 57.14264899 -56.125 49.6875 C-53.98465498 44.57445357 -56.13369643 40.51589477 -58.0625 35.625 C-58.70246397 34.08088766 -59.34634601 32.53836708 -60 31 C-58.45672226 29.29490284 -56.8896325 27.6113326 -55.3125 25.9375 C-54.44238281 24.99777344 -53.57226562 24.05804688 -52.67578125 23.08984375 C-50 21 -50 21 -47.37890625 21.08984375 C-45 22 -45 22 -41.625 23.625 C-36.2901705 25.64855602 -32.60850962 24.6848458 -27.421875 22.4765625 C-26.19398042 21.86724378 -24.97009348 21.24979301 -23.75 20.625 C-19.08636837 18.29550787 -14.91209407 16.6134861 -9.75 15.625 C-6.06171155 14.79069379 -6.06171155 14.79069379 -3.73046875 12 C-2.95283314 9.67092387 -2.47565768 7.40626828 -2 5 C-1.34 3.35 -0.68 1.7 0 0 Z " fill="#FBDE75" transform="translate(227,24)"/>
<path d="M0 0 C7.31600392 4.57536922 11.00646715 12.63165894 14.9921875 19.99609375 C16.23124055 22.24710334 17.47217415 24.49707866 18.71484375 26.74609375 C19.34277832 27.88433594 19.97071289 29.02257812 20.61767578 30.1953125 C23.4837093 35.33759926 26.44969421 40.41924037 29.4296875 45.49609375 C30.59650388 47.48689143 31.76316922 49.47777763 32.9296875 51.46875 C33.51363281 52.46535645 34.09757813 53.46196289 34.69921875 54.48876953 C37.79655796 59.79186638 40.86330574 65.11255469 43.9296875 70.43359375 C44.54642334 71.50359619 45.16315918 72.57359863 45.79858398 73.67602539 C47.05453897 75.85552953 48.31031571 78.03513639 49.56591797 80.21484375 C52.22252766 84.826368 54.88048307 89.43711515 57.53930664 94.04736328 C58.79531648 96.22524257 60.05103689 98.40328881 61.30639648 100.58154297 C61.88333252 101.5820166 62.46026855 102.58249023 63.0546875 103.61328125 C63.61542969 104.58620117 64.17617188 105.55912109 64.75390625 106.56152344 C65.97746254 108.67112695 67.2100746 110.7754912 68.44921875 112.87597656 C69.39861328 114.48617676 69.39861328 114.48617676 70.3671875 116.12890625 C70.94210937 117.09844238 71.51703125 118.06797852 72.109375 119.06689453 C74.93336346 124.15545847 75.08445229 128.86439088 74.4921875 134.55859375 C72.69327486 140.7247461 68.82079556 145.08004296 63.4921875 148.55859375 C59.74003746 150.32364053 56.7700915 150.81527556 52.63653564 150.83947754 C51.46468719 150.85089783 50.29283875 150.86231812 49.08547974 150.87408447 C47.80849213 150.87632019 46.53150452 150.87855591 45.21582031 150.88085938 C43.85038725 150.8901234 42.48495932 150.90017375 41.11953735 150.91094971 C37.41686976 150.937129 33.7142746 150.95007415 30.01152897 150.95897102 C27.69526518 150.96484387 25.37902094 150.97305562 23.06276703 150.98197937 C15.80711057 151.00931173 8.55149908 151.02865336 1.29579473 151.03638315 C-7.06396473 151.04533951 -15.42306933 151.08041849 -23.78262973 151.13838434 C-30.25501795 151.18169774 -36.72722247 151.20179592 -43.199754 151.20446539 C-47.0606389 151.20655594 -50.92090751 151.21824953 -54.7816391 151.25410461 C-58.41645456 151.28720632 -62.05019516 151.2913122 -65.68510818 151.2738266 C-67.64314887 151.27156602 -69.60115498 151.29889564 -71.55899048 151.32733154 C-79.43155553 151.25321695 -84.6406585 149.98695238 -90.5078125 144.55859375 C-95.18680815 139.13495186 -95.99390276 133.76028822 -95.90234375 126.78515625 C-95.22130555 121.21547753 -92.42635742 117.25287986 -89.5078125 112.55859375 C-88.39444443 110.58014392 -87.30806085 108.58811181 -86.22167969 106.59472656 C-81.35458276 97.67889415 -76.2392949 88.91052277 -71.10351562 80.14770508 C-66.51777343 72.31495759 -62.00063146 64.44479809 -57.5078125 56.55859375 C-50.73631618 44.67995567 -43.91366288 32.83259013 -36.97216797 21.05224609 C-35.67190048 18.83801933 -34.38671213 16.61588454 -33.10546875 14.390625 C-29.04947011 7.43855874 -25.14679557 2.175456 -18.0703125 -1.81640625 C-11.34812301 -3.45596466 -6.34693324 -2.34108193 0 0 Z " fill="#FDDF76" transform="translate(413.5078125,249.44140625)"/>
<path d="M0 0 C1.28856651 -0.00043808 1.28856651 -0.00043808 2.60316467 -0.00088501 C5.43305683 0.00050458 8.26268332 0.01604833 11.0925293 0.03173828 C13.0583634 0.03546973 15.02419938 0.03831608 16.99003601 0.04031372 C22.15708577 0.04793978 27.3240226 0.06757951 32.49102783 0.08972168 C37.76638257 0.11020219 43.04175561 0.11932016 48.31713867 0.12939453 C58.66289134 0.15082633 69.00856029 0.18494993 79.35424805 0.22705078 C79.35424805 4.18705078 79.35424805 8.14705078 79.35424805 12.22705078 C77.75478081 12.23585014 77.75478081 12.23585014 76.1230011 12.24482727 C66.07328365 12.30204393 56.02378281 12.3748001 45.97428608 12.46276569 C40.80774305 12.50749034 35.64127925 12.54674193 30.47460938 12.57348633 C25.48833752 12.59949828 20.50237025 12.63988594 15.51628685 12.69023705 C13.61414567 12.70691999 11.7119518 12.71842537 9.8097477 12.72466469 C7.14497585 12.73429021 4.48098575 12.76233079 1.81640625 12.79467773 C0.63712555 12.7925251 0.63712555 12.7925251 -0.565979 12.79032898 C-5.09676725 12.86809547 -8.11652381 13.30788537 -11.64575195 16.22705078 C-15.04991572 20.58529161 -15.06760657 24.68460496 -15.01997375 30.00160217 C-15.02394816 30.88509934 -15.02792257 31.76859651 -15.03201741 32.67886633 C-15.04164156 35.63918332 -15.02982152 38.59902258 -15.01806641 41.55932617 C-15.02049431 43.68162718 -15.02421362 45.80392705 -15.02912903 47.92622375 C-15.03854122 53.69053621 -15.02911004 59.45467896 -15.0157969 65.21897817 C-15.00448954 71.2469328 -15.00858932 77.274879 -15.01054382 83.30284119 C-15.01142696 93.42514828 -15.00034177 103.54738842 -14.98193359 113.66967773 C-14.96076 125.3798176 -14.95725721 137.08985942 -14.96349555 148.80001456 C-14.96918589 160.05699655 -14.9635478 171.31394394 -14.95232201 182.57092094 C-14.94767223 187.36549963 -14.9468038 192.16005719 -14.94890785 196.95463753 C-14.9507885 202.59759105 -14.94270399 208.24044447 -14.92684746 213.88337517 C-14.92259729 215.95705628 -14.92175895 218.03074754 -14.92453766 220.10443115 C-14.92774955 222.92955909 -14.91870269 225.75438605 -14.90644836 228.57948303 C-14.91022769 229.4048659 -14.91400701 230.23024877 -14.91790086 231.08064324 C-14.91836279 236.47903398 -14.91836279 236.47903398 -12.64575195 241.22705078 C-10.2606923 242.41958061 -8.79876655 242.35717402 -6.13611412 242.36571598 C-5.18116503 242.37119042 -4.22621594 242.37666487 -3.242329 242.3823052 C-1.6577242 242.38377237 -1.6577242 242.38377237 -0.04110718 242.38526917 C1.63367079 242.39267613 1.63367079 242.39267613 3.34228265 242.40023273 C7.1088021 242.41567334 10.87530442 242.42398607 14.6418457 242.43237305 C17.33176425 242.44194642 20.02167866 242.45191239 22.71159363 242.46237183 C28.51578683 242.48415389 34.31998234 242.50229204 40.1241951 242.51797676 C48.51618026 242.54065966 56.90814004 242.56880466 65.30010371 242.59829604 C78.9144948 242.64599136 92.52889625 242.68925027 106.14331055 242.72973633 C119.37085781 242.76908139 132.59839586 242.81050524 145.82592773 242.85473633 C146.64085208 242.8574606 147.45577643 242.86018487 148.29539545 242.8629917 C152.38350575 242.87667101 156.47161591 242.89039132 160.559726 242.90413201 C194.49121434 243.01812725 228.4227219 243.12492986 262.35424805 243.22705078 C261.1765643 246.20778644 259.98008054 249.0772721 258.4440918 251.89111328 C258.09411133 252.53822266 257.74413086 253.18533203 257.38354492 253.85205078 C256.84310547 254.84205078 256.84310547 254.84205078 256.29174805 255.85205078 C252.47966879 262.77761272 252.47966879 262.77761272 251.0378418 270.45751953 C250.99594727 271.25996094 250.95405273 272.06240234 250.91088867 272.88916016 C250.85191406 274.13922852 250.85191406 274.13922852 250.79174805 275.41455078 C250.74856445 276.25953125 250.70538086 277.10451172 250.66088867 277.97509766 C250.55493287 280.05889512 250.45409784 282.14295181 250.35424805 284.22705078 C217.49537472 284.3186267 184.63653452 284.38909984 151.77756268 284.4313121 C147.89736254 284.43631486 144.01716265 284.44149216 140.13696289 284.44677734 C139.36449215 284.44782659 138.59202141 284.44887583 137.79614246 284.44995686 C125.29201245 284.46735725 112.78795608 284.49889291 100.28386974 284.53566197 C87.45141489 284.57308161 74.61899857 284.59528879 61.78649139 284.60340476 C53.86952372 284.60889042 45.95276419 284.62620993 38.0358606 284.65871665 C31.96289243 284.68238044 25.89010294 284.68486804 19.81708336 284.67948151 C17.32741706 284.68058221 14.8377429 284.68854224 12.34812355 284.70387268 C8.94810135 284.72378271 5.54896869 284.71898533 2.14892578 284.70806885 C1.1644729 284.71972021 0.18002003 284.73137158 -0.83426476 284.74337602 C-8.38591889 284.67787007 -13.53978244 282.82739735 -19.33325195 277.97705078 C-24.27947664 272.09505386 -27.7609164 266.78157198 -27.77997303 258.94656754 C-27.78443087 258.09358841 -27.78888872 257.24060929 -27.79348165 256.36178231 C-27.79329729 255.42949925 -27.79311292 254.49721619 -27.79292297 253.53668213 C-27.79659966 252.54252218 -27.80027635 251.54836223 -27.80406445 250.52407622 C-27.8151029 247.18320057 -27.8189454 243.84235601 -27.82275391 240.50146484 C-27.82901836 238.10994365 -27.83566515 235.71842344 -27.84266663 233.3269043 C-27.86189232 226.14419704 -27.8724939 218.96148921 -27.88139442 211.77876341 C-27.88578016 208.39472145 -27.89114617 205.01068105 -27.89638329 201.62664032 C-27.91339233 190.37512156 -27.92788655 179.12360377 -27.93513203 167.87207413 C-27.93704185 164.95361581 -27.9389622 162.0351575 -27.94091797 159.11669922 C-27.94140171 158.3913497 -27.94188545 157.66600019 -27.94238385 156.91867039 C-27.95068443 145.16813537 -27.97602324 133.41770213 -28.00849865 121.66721156 C-28.04158118 109.59851181 -28.0595818 97.52986379 -28.06277627 85.46111846 C-28.0649401 78.68682651 -28.07367027 71.91268307 -28.09923744 65.13843536 C-28.12248965 58.76577525 -28.12676266 52.39338243 -28.11647606 46.02069092 C-28.11597992 43.68260561 -28.12232316 41.34450727 -28.1360321 39.0064621 C-28.1537113 35.81243845 -28.14666369 32.61937821 -28.13349915 29.425354 C-28.14446839 28.50199383 -28.15543764 27.57863366 -28.16673928 26.62729287 C-28.09307952 19.21564179 -26.1342523 14.03458964 -21.20825195 8.47705078 C-14.07161527 2.21073564 -9.61725762 -0.08591672 0 0 Z " fill="#EAEDEF" transform="translate(51.645751953125,103.77294921875)"/>
<path d="M0 0 C1.32688295 -0.00761181 1.32688295 -0.00761181 2.68057162 -0.0153774 C4.13968333 -0.01612404 4.13968333 -0.01612404 5.62827206 -0.01688576 C6.66100197 -0.02126801 7.69373189 -0.02565027 8.75775665 -0.03016531 C12.23526241 -0.04357208 15.71274283 -0.04973644 19.19026852 -0.0558567 C21.67691825 -0.06375626 24.16356683 -0.07202512 26.6502142 -0.08063698 C34.12552819 -0.10461056 41.600838 -0.11978869 49.07617727 -0.13269705 C51.18823065 -0.13640966 53.30028338 -0.14038285 55.41233611 -0.14444971 C68.53245498 -0.16968987 81.65257491 -0.19173951 94.77271271 -0.20417786 C97.8116376 -0.20710748 100.85056246 -0.21006915 103.88948727 -0.21308327 C104.64478381 -0.21382932 105.40008035 -0.21457537 106.17826467 -0.21534403 C118.40605758 -0.22799014 130.63370484 -0.26120312 142.8614297 -0.3028851 C155.42053175 -0.34534498 167.97955932 -0.36887767 180.53873295 -0.37409842 C187.58812415 -0.37750825 194.63728786 -0.38921233 201.68660831 -0.42220116 C208.32108974 -0.45319794 214.95524723 -0.45859576 221.58981419 -0.4468174 C224.02220543 -0.4465966 226.45461502 -0.45490671 228.88694286 -0.47247124 C232.21403632 -0.49518518 235.53969572 -0.48685594 238.86679745 -0.47098732 C240.30248659 -0.49181045 240.30248659 -0.49181045 241.76717955 -0.51305425 C248.57416022 -0.43334714 254.09179574 1.15988107 259.6919775 5.13701439 C263.6919775 10.13701439 263.6919775 10.13701439 263.6919775 30.13701439 C170.3019775 30.13701439 76.9119775 30.13701439 -19.3080225 30.13701439 C-19.3080225 13.13701439 -19.3080225 13.13701439 -15.3080225 6.13701439 C-13.27286625 4.39482689 -13.27286625 4.39482689 -11.2455225 3.26201439 C-10.57392094 2.87271751 -9.90231937 2.48342064 -9.21036625 2.08232689 C-6.04068137 0.50724734 -3.48686587 0.01062262 0 0 Z " fill="#EBEEF0" transform="translate(113.30802249908447,457.8629856109619)"/>
<path d="M0 0 C3.76969568 2.08138753 7.0527067 4.42128968 10.28515625 7.26171875 C10.89101563 7.76316406 11.496875 8.26460937 12.12109375 8.78125 C18.09743724 14.1443006 23.70660725 23.0181775 24.4621582 31.171875 C24.89591734 46.40701657 23.32617217 58.59718449 12.47265625 70.19921875 C3.2678749 78.81014324 -7.71462378 82.81482293 -20.2421875 82.5703125 C-32.39012533 81.49079946 -42.17988947 76.27205786 -50.52734375 67.51171875 C-59.78375726 56.30773833 -60.99396661 43.19742566 -59.71484375 29.26171875 C-57.22712337 18.18226163 -49.65218305 9.90284934 -40.71484375 3.26171875 C-39.03455747 2.31432329 -37.32565168 1.41558131 -35.58984375 0.57421875 C-34.74164063 0.15785156 -33.8934375 -0.25851563 -33.01953125 -0.6875 C-23.52246544 -5.01751814 -9.4068826 -4.1436809 0 0 Z " fill="#EAEDEF" transform="translate(252.71484375,72.73828125)"/>
<path d="M0 0 C11.80599667 9.07026227 20.73052954 21.2799184 24 36 C25.72256306 54.91417214 23.22336409 69.39742609 12 85 C11.2575 86.051875 10.515 87.10375 9.75 88.1875 C-2.66253883 100.88214198 -17.90182159 106.8021089 -35.375 107.375 C-50.43664918 107.1305919 -65.12899677 100.4067611 -76 90 C-89.85512171 74.14610664 -92.97054577 59.19771663 -92.1953125 38.76708984 C-91.81303233 33.35113559 -90.45822315 28.80923407 -88 24 C-87.57589844 23.14921875 -87.15179688 22.2984375 -86.71484375 21.421875 C-78.36509956 6.25743709 -65.43705352 -3.92064526 -49 -9 C-32.21786552 -13.44316208 -14.23510552 -9.23406468 0 0 Z M-62 16 C-62.60714844 16.50144531 -63.21429688 17.00289062 -63.83984375 17.51953125 C-69.81098226 22.88963612 -75.42125582 31.75435244 -76.17700195 39.91015625 C-76.61076109 55.14529782 -75.04101592 67.33546574 -64.1875 78.9375 C-54.63239608 87.8761456 -43.42277936 91.61472096 -30.5078125 91.375 C-20.26743083 90.28025987 -11.40949934 86.07270392 -4 79 C-3.43796875 78.46632813 -2.8759375 77.93265625 -2.296875 77.3828125 C6.98394464 67.58639177 8.57444473 55.69313459 8.33203125 42.84765625 C7.79729743 31.47741081 2.07165904 23.62937635 -6 16 C-8.85401804 13.58134064 -11.5731067 11.51247567 -14.9375 9.875 C-15.56527344 9.56304687 -16.19304687 9.25109375 -16.83984375 8.9296875 C-32.49506231 2.1919985 -49.24287324 5.00064019 -62 16 Z " fill="#272524" transform="translate(269,64)"/>
<path d="M0 0 C40.26 0 80.52 0 122 0 C122 12.54 122 25.08 122 38 C81.74 38 41.48 38 0 38 C0 25.46 0 12.92 0 0 Z " fill="#A69AA6" transform="translate(175,404)"/>
<path d="M0 0 C5.60366102 3.78149153 9.01881255 8.04171362 11.9921875 14.08203125 C12.96393478 16.16196193 12.96393478 16.16196193 15 18 C17.51383209 18.30774582 17.51383209 18.30774582 20.49057007 18.26069641 C22.24037422 18.27132362 22.24037422 18.27132362 24.02552795 18.28216553 C25.31180588 18.27968811 26.5980838 18.27721069 27.92333984 18.2746582 C29.28658834 18.27900365 30.64983439 18.28418624 32.01307678 18.29014587 C35.72181372 18.30356679 39.43044895 18.30411102 43.13920546 18.30158257 C46.23317083 18.30051472 49.32711547 18.30539158 52.42107642 18.310188 C59.72018643 18.32129436 67.01924499 18.32171458 74.31835938 18.31567383 C81.85170418 18.3096351 89.38486217 18.32193981 96.9181751 18.3432439 C103.38193084 18.36085209 109.84562708 18.36686241 116.30940592 18.36360615 C120.17164791 18.36179153 124.03375671 18.36444697 127.89597702 18.37832069 C131.52886843 18.39088143 135.16146854 18.38897183 138.79435539 18.37590981 C140.76404959 18.37241008 142.73375261 18.38373557 144.70341492 18.39547729 C145.87559067 18.38846298 147.04776642 18.38144867 148.25546265 18.3742218 C149.27421164 18.37438954 150.29296062 18.37455729 151.3425808 18.37473011 C154.41288292 17.94177823 155.75398471 17.09737603 158 15 C159.24791393 12.98552843 159.24791393 12.98552843 160.25 10.75 C163.7248288 4.24528999 168.47723488 -0.3258822 175.4375 -2.9375 C183.23411942 -5.0905973 190.67374164 -4.56500965 198 -1 C198.33 -0.34 198.66 0.32 199 1 C198.02389771 1.02187378 198.02389771 1.02187378 197.02807617 1.04418945 C194.08061694 1.11864549 191.13429358 1.21531266 188.1875 1.3125 C187.16333984 1.33505859 186.13917969 1.35761719 185.08398438 1.38085938 C184.10107422 1.41630859 183.11816406 1.45175781 182.10546875 1.48828125 C181.19949951 1.51446533 180.29353027 1.54064941 179.36010742 1.56762695 C176.52815943 2.08644147 175.7495226 2.75508257 174 5 C172.08873181 7.8222328 170.43540596 10.78863699 168.75 13.75 C168.27820313 14.53632813 167.80640625 15.32265625 167.3203125 16.1328125 C165.24875011 19.77924689 164.02261742 22.25111213 163.89453125 26.4921875 C165.36190648 31.1483817 167.5016361 35.1592131 169.9375 39.375 C170.62102539 40.60283203 170.62102539 40.60283203 171.31835938 41.85546875 C173.45425037 46.12404397 173.45425037 46.12404397 177 49 C178.59262066 49.15175549 180.19064856 49.24900325 181.7890625 49.31640625 C182.73007812 49.35830078 183.67109375 49.40019531 184.640625 49.44335938 C186.11789062 49.50233398 186.11789062 49.50233398 187.625 49.5625 C189.11386719 49.62727539 189.11386719 49.62727539 190.6328125 49.69335938 C193.08839838 49.79961069 195.54408703 49.90164964 198 50 C198 50.66 198 51.32 198 52 C189.51431316 55.37020187 181.9823551 56.42521677 173.265625 53.1640625 C166.16229766 49.5144219 161.43056426 44.02645882 158.0703125 36.8828125 C157.00336358 34.67781047 157.00336358 34.67781047 154 33 C151.40366898 32.68939772 151.40366898 32.68939772 148.43386841 32.72584534 C146.69679123 32.71088264 146.69679123 32.71088264 144.92462158 32.69561768 C143.65286072 32.694953 142.38109985 32.69428833 141.07080078 32.69360352 C139.71887758 32.6859826 138.36695872 32.67755521 137.01504517 32.66838074 C133.34144219 32.64642209 129.66792246 32.63763504 125.99426126 32.63255429 C123.69914543 32.62891233 121.40405145 32.62267312 119.10894394 32.6155529 C111.10207917 32.59105367 103.09527924 32.57800549 95.08837891 32.57446289 C87.62479567 32.5708272 80.16162357 32.54093102 72.69816601 32.49905831 C66.29042275 32.46436881 59.88281582 32.44891469 53.47497928 32.44821686 C49.64781157 32.44742357 45.82106255 32.4386621 41.99399185 32.41021919 C38.39377542 32.38406089 34.79432547 32.38181985 31.19405746 32.39787483 C29.24480127 32.4005566 27.29556015 32.37849029 25.34643555 32.35568237 C18.48072288 32.15915953 18.48072288 32.15915953 12.77511597 35.3948822 C12.1893277 36.25457108 11.60353943 37.11425995 11 38 C10.47535156 38.7528125 9.95070312 39.505625 9.41015625 40.28125 C8.74306641 41.37953125 8.74306641 41.37953125 8.0625 42.5 C3.45079234 49.54631474 -1.69062577 53.22237268 -10 55 C-16.31764135 55.79652473 -22.25413664 54.79597816 -28 52 C-28.33 51.34 -28.66 50.68 -29 50 C-28.34926514 49.98541748 -27.69853027 49.97083496 -27.02807617 49.95581055 C-24.08061694 49.88135451 -21.13429358 49.78468734 -18.1875 49.6875 C-17.16333984 49.66494141 -16.13917969 49.64238281 -15.08398438 49.61914062 C-14.10107422 49.58369141 -13.11816406 49.54824219 -12.10546875 49.51171875 C-11.19949951 49.48553467 -10.29353027 49.45935059 -9.36010742 49.43237305 C-6.52815943 48.91355853 -5.7495226 48.24491743 -4 46 C-2.08873181 43.1777672 -0.43540596 40.21136301 1.25 37.25 C1.72179687 36.46367187 2.19359375 35.67734375 2.6796875 34.8671875 C4.75124989 31.22075311 5.97738258 28.74888787 6.10546875 24.5078125 C4.63809352 19.8516183 2.4983639 15.8407869 0.0625 11.625 C-0.39318359 10.80644531 -0.84886719 9.98789063 -1.31835938 9.14453125 C-3.45425037 4.87595603 -3.45425037 4.87595603 -7 2 C-8.66565749 1.84777027 -10.33656496 1.75082785 -12.0078125 1.68359375 C-12.99394531 1.64169922 -13.98007813 1.59980469 -14.99609375 1.55664062 C-16.54490234 1.49766602 -16.54490234 1.49766602 -18.125 1.4375 C-19.68541016 1.37272461 -19.68541016 1.37272461 -21.27734375 1.30664062 C-23.85142528 1.2003712 -26.42560508 1.09833417 -29 1 C-21.42625646 -7.27669578 -8.79133867 -4.79269753 0 0 Z " fill="#9CA8B6" transform="translate(150,238)"/>
<path d="M0 0 C11.59630792 -0.09281592 23.19252697 -0.16382398 34.78913116 -0.20724869 C40.17433321 -0.2280939 45.55928049 -0.25635573 50.94433594 -0.30175781 C56.1444498 -0.34532461 61.34431911 -0.36916016 66.54460144 -0.37950897 C68.52528226 -0.38688088 70.5059502 -0.40127651 72.48652649 -0.42292023 C75.26800107 -0.45209818 78.04847431 -0.45594999 80.83007812 -0.45410156 C81.64288239 -0.46848267 82.45568665 -0.48286377 83.29312134 -0.49768066 C90.95197955 -0.44286482 97.56042023 2.56042023 103 8 C106.58502519 13.67713621 109.12592627 18.14774389 109.12025452 24.89712524 C109.12231651 26.78181267 109.12231651 26.78181267 109.12442017 28.70457458 C109.12088079 30.10464501 109.11724597 31.5047152 109.11352539 32.90478516 C109.11324344 34.37304177 109.1134014 35.84129852 109.1139679 37.30955505 C109.11425558 41.30312319 109.10836358 45.29666147 109.10139394 49.29022264 C109.09515553 53.46092612 109.09455621 57.63163023 109.09336853 61.80233765 C109.09025666 69.70357997 109.0820452 77.6048085 109.07201904 85.50604475 C109.06085345 94.49987216 109.05534633 103.49370023 109.05032361 112.48753285 C109.03986247 130.99169639 109.0222658 149.49584709 109 168 C108.55092852 167.39909451 108.10185703 166.79818903 107.63917732 166.17907429 C106.36568348 164.4861289 105.0731706 162.80748306 103.77316284 161.1348114 C95.02660953 148.70562039 95.77340732 135.56471307 95.98432016 120.89736009 C96.02414258 117.39637233 96.00968249 113.89559731 96.0007019 110.39445496 C95.99121584 103.78482557 96.02451376 97.17622351 96.07607162 90.56681508 C96.16714912 78.70703087 96.18394125 66.84699797 96.18526542 54.98690242 C96.18743647 50.83165637 96.20842808 46.67705457 96.24545598 42.52197707 C96.27096573 39.3386741 96.27836457 36.15530461 96.28955078 32.97192383 C96.30512527 31.82749313 96.32069977 30.68306244 96.33674622 29.50395203 C96.33721451 28.4516037 96.3376828 27.39925537 96.33816528 26.3150177 C96.34878589 24.94829029 96.34878589 24.94829029 96.35962105 23.55395222 C95.91749913 20.41409636 94.84578077 18.55882057 93 16 C88.16841345 12.7394579 83.9549941 12.5574384 78.33251953 12.56762695 C77.48308273 12.5574353 76.63364594 12.54724365 75.75846863 12.53674316 C72.96651553 12.50668454 70.17490595 12.49735816 67.3828125 12.48828125 C65.44081488 12.47142928 63.49882814 12.45327833 61.55685425 12.43388367 C56.45730995 12.38643392 51.35780976 12.356592 46.25811768 12.33044434 C41.04959405 12.30061351 35.84122226 12.25409181 30.6328125 12.20898438 C20.42195451 12.1230084 10.21106522 12.05563767 0 12 C0 8.04 0 4.08 0 0 Z " fill="#E9ECEE" transform="translate(339,104)"/>
<path d="M0 0 C4.10842902 2.4238969 6.48055629 4.68115259 8.54296875 9.0546875 C8.96431492 12.30206072 8.91570064 15.5187883 8.87109375 18.7890625 C8.86922058 19.74049133 8.86734741 20.69192017 8.86541748 21.67218018 C8.85870054 23.68952938 8.84479315 25.70686563 8.82421875 27.72412109 C8.79349909 30.75240751 8.78328281 33.78016797 8.77734375 36.80859375 C8.63992645 71.83399743 8.63992645 71.83399743 3.54296875 79.0546875 C-1.08681558 83.45862869 -4.9597536 84.42284984 -11.17578125 84.33203125 C-14.78407243 83.89335201 -16.76705526 82.43187558 -19.45703125 80.0546875 C-23.92840832 74.13313408 -24.66870337 69.47096115 -24.98828125 62.2265625 C-25.02908813 61.34208435 -25.06989502 60.4576062 -25.11193848 59.54632568 C-25.51581085 50.38027506 -25.81475979 41.21554898 -25.91699219 32.04101562 C-25.94400304 30.19505443 -25.98534777 28.34925477 -26.04003906 26.50390625 C-26.54510862 9.10030471 -26.54510862 9.10030471 -22.17578125 3.9140625 C-15.98498617 -1.63366291 -7.84286924 -3.01744731 0 0 Z " fill="#2C2625" transform="translate(408.45703125,273.9453125)"/>
<path d="M0 0 C28.05 0 56.1 0 85 0 C85 33.99 85 67.98 85 103 C81.04 102.01 77.08 101.02 73 100 C73.33 67.33 73.66 34.66 74 1 C49.58 1 25.16 1 0 1 C0 0.67 0 0.34 0 0 Z " fill="#C0DDF8" transform="translate(335,132)"/>
<path d="M0 0 C4.36775158 3.14884416 7.96773395 6.77820184 9.6875 11.9375 C10.52808099 18.02570801 9.66377066 22.18160206 6.1171875 27.2109375 C3.21314406 30.71800636 0.30050578 33.41029934 -4.3125 33.9375 C-10.1777765 34.3221083 -14.06235093 33.90928249 -19.3125 30.9375 C-23.49929359 26.98330605 -26.57132706 22.53115619 -26.75 16.6875 C-26.62859733 11.42382725 -24.63387887 7.92676484 -21.3125 3.9375 C-14.93856721 -1.84350881 -8.23499823 -2.64141453 0 0 Z " fill="#292524" transform="translate(408.3125,361.0625)"/>
<path d="M0 0 C8.85509571 3.90665987 13.38230898 15.95382657 17.9375 23.9375 C18.92992138 25.6673456 19.92234765 27.39718843 20.91506958 29.12686157 C21.93764091 30.90939872 22.95890134 32.69268197 23.97998047 34.47607422 C27.139699 39.99189769 30.32106868 45.49523567 33.5 51 C34.7488157 53.16399453 35.9975133 55.32805723 37.24609375 57.4921875 C37.86468262 58.56436523 38.48327148 59.63654297 39.12060547 60.74121094 C41.00980166 64.01699566 42.89764109 67.29355893 44.78515625 70.5703125 C46.04421708 72.75523931 47.30333141 74.94013529 48.5625 77.125 C49.17657715 78.19105469 49.7906543 79.25710938 50.42333984 80.35546875 C53.55598294 85.78747353 56.70395597 91.2097879 59.87890625 96.6171875 C60.50788818 97.68952637 61.13687012 98.76186523 61.78491211 99.86669922 C62.9690454 101.88304083 64.15584504 103.89782019 65.34594727 105.91064453 C76.31554945 124.59132356 76.31554945 124.59132356 75 134 C74 137.125 74 137.125 73 139 C72.24613381 136.41531593 71.95809852 134.2178391 71.8125 131.5 C70.64319224 121.68188589 63.5164732 112.2307728 58.5625 103.875 C57.32231764 101.76597714 56.08275562 99.65658939 54.84375 97.546875 C54.20953125 96.46857422 53.5753125 95.39027344 52.921875 94.27929688 C49.77515892 88.91005267 46.66841381 83.51791809 43.5625 78.125 C42.94060791 77.04589355 42.31871582 75.96678711 41.67797852 74.85498047 C40.41550269 72.66417049 39.15321444 70.4732524 37.89111328 68.28222656 C34.14561565 61.78152037 30.39502735 55.28374968 26.64501953 48.78564453 C23.74705111 43.76346298 20.85005713 38.74072934 17.95724487 33.71557617 C16.94052802 31.94954478 15.92344342 30.18372569 14.90625 28.41796875 C13.63599127 26.21265845 12.36640982 24.00695784 11.09765625 21.80078125 C10.51757812 20.79402344 9.9375 19.78726562 9.33984375 18.75 C8.78538574 17.78707031 8.23092773 16.82414062 7.65966797 15.83203125 C5.53035066 12.19859778 3.31240239 8.62233886 1.06860352 5.05859375 C0 3 0 3 0 0 Z " fill="#F6C961" transform="translate(413,250)"/>
<path d="M0 0 C1.33338526 0.00094364 2.66702117 0.03449336 3.99902344 0.09521484 C5.05594391 0.10794937 5.05594391 0.10794937 6.13421631 0.12094116 C8.37718925 0.15443926 10.61651943 0.22969186 12.85839844 0.30615234 C14.38178387 0.3362575 15.90522588 0.36363237 17.42871094 0.38818359 C21.15645031 0.45421215 24.88206868 0.55770105 28.60839844 0.68115234 C28.1417981 1.82233521 28.1417981 1.82233521 27.66577148 2.98657227 C26.5472307 5.72199435 26.5472307 5.72199435 25.69042969 8.79443359 C24.10856228 12.78073945 22.92245406 14.89786344 19.60839844 17.68115234 C15.70484999 18.67901207 11.93772663 18.8070808 7.92089844 18.80615234 C6.88618408 18.81042236 5.85146973 18.81469238 4.78540039 18.8190918 C-2.64243248 18.49703576 -2.64243248 18.49703576 -6.06738281 14.76708984 C-7.43539994 11.57908533 -8.06835035 10.06489627 -7.39160156 6.68115234 C-4.48361553 0.90046698 -4.48361553 0.90046698 0 0 Z " fill="#D6EAFC" transform="translate(338.3916015625,254.31884765625)"/>
<path d="M0 0 C0.33 0 0.66 0 1 0 C1 6.6 1 13.2 1 20 C-92.39 20 -185.78 20 -282 20 C-282 14.39 -282 8.78 -282 3 C-281.67 3 -281.34 3 -281 3 C-281 8.28 -281 13.56 -281 19 C-245.61846732 18.89535738 -210.23695427 18.78566488 -174.85545952 18.66888306 C-170.68212288 18.65511282 -166.50878609 18.64138583 -162.33544922 18.62768555 C-161.08914979 18.62359309 -161.08914979 18.62359309 -159.8176726 18.61941796 C-146.34925684 18.57529511 -132.88083267 18.53467798 -119.41240217 18.49534739 C-105.60136803 18.45493863 -91.79034956 18.41078348 -77.97933853 18.36312145 C-69.4513322 18.33381011 -60.92332709 18.30745104 -52.39530037 18.28482103 C-46.55412035 18.26904143 -40.71295952 18.24963597 -34.8718008 18.22733159 C-31.49745534 18.21455526 -28.1231396 18.20395908 -24.74877548 18.19658089 C-21.0973051 18.18834652 -17.44590813 18.17407745 -13.79446411 18.15821838 C-12.71860617 18.15724028 -11.64274822 18.15626217 -10.53428853 18.15525442 C-9.07573942 18.14704276 -9.07573942 18.14704276 -7.58772469 18.1386652 C-6.74398611 18.13600716 -5.90024754 18.13334911 -5.03094113 18.13061053 C-2.93147054 18.12777248 -2.93147054 18.12777248 -1 17 C-0.67 11.39 -0.34 5.78 0 0 Z " fill="#CCCCD1" transform="translate(376,468)"/>
<path d="M0 0 C1.32 0 2.64 0 4 0 C4 12.54 4 25.08 4 38 C2.68 38 1.36 38 0 38 C0 25.46 0 12.92 0 0 Z " fill="#847784" transform="translate(293,404)"/>
<path d="M0 0 C0.33 0 0.66 0 1 0 C1 6.6 1 13.2 1 20 C-0.32 20 -1.64 20 -3 20 C-3 19.34 -3 18.68 -3 18 C-2.34 17.67 -1.68 17.34 -1 17 C-0.67 11.39 -0.34 5.78 0 0 Z " fill="#D2D3D7" transform="translate(376,468)"/>
</svg>
